<mxfile host="Electron" agent="Mozilla/5.0 (Windows NT 10.0; Win64; x64) AppleWebKit/537.36 (KHTML, like Gecko) draw.io/24.7.5 Chrome/126.0.6478.183 Electron/31.3.0 Safari/537.36" version="24.7.5">
  <diagram id="C5RBs43oDa-KdzZeNtuy" name="Page-1">
    <mxGraphModel dx="1697" dy="1249" grid="1" gridSize="10" guides="1" tooltips="1" connect="1" arrows="1" fold="1" page="0" pageScale="1" pageWidth="827" pageHeight="1169" math="0" shadow="0">
      <root>
        <mxCell id="WIyWlLk6GJQsqaUBKTNV-0" />
        <mxCell id="WIyWlLk6GJQsqaUBKTNV-1" parent="WIyWlLk6GJQsqaUBKTNV-0" />
        <mxCell id="zkfFHV4jXpPFQw0GAbJ--17" value="TextConnector" style="swimlane;fontStyle=1;align=center;verticalAlign=top;childLayout=stackLayout;horizontal=1;startSize=26;horizontalStack=0;resizeParent=1;resizeLast=0;collapsible=1;marginBottom=0;rounded=0;shadow=0;strokeWidth=1;fontSize=13;labelBackgroundColor=none;labelBorderColor=none;" parent="WIyWlLk6GJQsqaUBKTNV-1" vertex="1">
          <mxGeometry x="-160" y="160" width="680" height="270" as="geometry">
            <mxRectangle x="550" y="140" width="160" height="26" as="alternateBounds" />
          </mxGeometry>
        </mxCell>
        <mxCell id="zkfFHV4jXpPFQw0GAbJ--18" value="- TodoFile: String = &quot;TodoModels.csv&quot; {readOnly}" style="text;align=left;verticalAlign=top;spacingLeft=4;spacingRight=4;overflow=hidden;rotatable=0;points=[[0,0.5],[1,0.5]];portConstraint=eastwest;fontStyle=4;fontSize=13;" parent="zkfFHV4jXpPFQw0GAbJ--17" vertex="1">
          <mxGeometry y="26" width="680" height="26" as="geometry" />
        </mxCell>
        <mxCell id="zkfFHV4jXpPFQw0GAbJ--20" value="- SettingsFile: String = &quot;Settings.csv&quot; {readOnly}" style="text;align=left;verticalAlign=top;spacingLeft=4;spacingRight=4;overflow=hidden;rotatable=0;points=[[0,0.5],[1,0.5]];portConstraint=eastwest;rounded=0;shadow=0;html=0;fontStyle=4;fontSize=13;labelBackgroundColor=none;" parent="zkfFHV4jXpPFQw0GAbJ--17" vertex="1">
          <mxGeometry y="52" width="680" height="26" as="geometry" />
        </mxCell>
        <mxCell id="zkfFHV4jXpPFQw0GAbJ--23" value="" style="line;html=1;strokeWidth=1;align=left;verticalAlign=middle;spacingTop=-1;spacingLeft=3;spacingRight=3;rotatable=0;labelPosition=right;points=[];portConstraint=eastwest;fontSize=13;" parent="zkfFHV4jXpPFQw0GAbJ--17" vertex="1">
          <mxGeometry y="78" width="680" height="8" as="geometry" />
        </mxCell>
        <mxCell id="zkfFHV4jXpPFQw0GAbJ--24" value="+ CreateTodoModel(model: TodoModel): TodoModel" style="text;align=left;verticalAlign=top;spacingLeft=4;spacingRight=4;overflow=hidden;rotatable=0;points=[[0,0.5],[1,0.5]];portConstraint=eastwest;fontSize=13;" parent="zkfFHV4jXpPFQw0GAbJ--17" vertex="1">
          <mxGeometry y="86" width="680" height="26" as="geometry" />
        </mxCell>
        <mxCell id="gE3AF1tb6HH0xJSkaLba-6" value="+ UpdateTodoDone(model: TodoModel): void" style="text;align=left;verticalAlign=top;spacingLeft=4;spacingRight=4;overflow=hidden;rotatable=0;points=[[0,0.5],[1,0.5]];portConstraint=eastwest;fontSize=13;" vertex="1" parent="zkfFHV4jXpPFQw0GAbJ--17">
          <mxGeometry y="112" width="680" height="26" as="geometry" />
        </mxCell>
        <mxCell id="gE3AF1tb6HH0xJSkaLba-7" value="+ UpdateSettings(topmost: bool, hideCompleted: bool): void" style="text;align=left;verticalAlign=top;spacingLeft=4;spacingRight=4;overflow=hidden;rotatable=0;points=[[0,0.5],[1,0.5]];portConstraint=eastwest;fontSize=13;" vertex="1" parent="zkfFHV4jXpPFQw0GAbJ--17">
          <mxGeometry y="138" width="680" height="26" as="geometry" />
        </mxCell>
        <mxCell id="gE3AF1tb6HH0xJSkaLba-8" value="+ LoadTodosFromFile(alwaysOnTopChecked: bool, hideCompleted: bool): (IEnumerable&lt;TodoModel&gt;, List&lt;bool&gt;)" style="text;align=left;verticalAlign=top;spacingLeft=4;spacingRight=4;overflow=hidden;rotatable=0;points=[[0,0.5],[1,0.5]];portConstraint=eastwest;fontSize=13;" vertex="1" parent="zkfFHV4jXpPFQw0GAbJ--17">
          <mxGeometry y="164" width="680" height="26" as="geometry" />
        </mxCell>
        <mxCell id="gE3AF1tb6HH0xJSkaLba-9" value="+ LoadSettingsFromFile(): List&lt;bool&gt;" style="text;align=left;verticalAlign=top;spacingLeft=4;spacingRight=4;overflow=hidden;rotatable=0;points=[[0,0.5],[1,0.5]];portConstraint=eastwest;fontSize=13;" vertex="1" parent="zkfFHV4jXpPFQw0GAbJ--17">
          <mxGeometry y="190" width="680" height="26" as="geometry" />
        </mxCell>
        <mxCell id="gE3AF1tb6HH0xJSkaLba-10" value="- LoadSettings(alwaysOnTopChecked: bool, hideCompleted: bool): List&lt;bool&gt;" style="text;align=left;verticalAlign=top;spacingLeft=4;spacingRight=4;overflow=hidden;rotatable=0;points=[[0,0.5],[1,0.5]];portConstraint=eastwest;fontSize=13;" vertex="1" parent="zkfFHV4jXpPFQw0GAbJ--17">
          <mxGeometry y="216" width="680" height="26" as="geometry" />
        </mxCell>
        <mxCell id="gE3AF1tb6HH0xJSkaLba-11" value="- FilterTodos(todos: IEnumerable&lt;TodoModel&gt;, shouldHideCompletedTodos: bool): IEnumerable&lt;TodoModel&gt;" style="text;align=left;verticalAlign=top;spacingLeft=4;spacingRight=4;overflow=hidden;rotatable=0;points=[[0,0.5],[1,0.5]];portConstraint=eastwest;fontSize=13;" vertex="1" parent="zkfFHV4jXpPFQw0GAbJ--17">
          <mxGeometry y="242" width="680" height="26" as="geometry" />
        </mxCell>
        <mxCell id="gE3AF1tb6HH0xJSkaLba-3" value="&lt;p style=&quot;margin: 4px 0px 0px; font-size: 13px;&quot;&gt;&lt;/p&gt;&lt;div style=&quot;text-align: center; font-size: 13px;&quot;&gt;&lt;i style=&quot;background-color: initial; font-size: 13px;&quot;&gt;&amp;lt;&amp;lt;Interface&amp;gt;&amp;gt;&lt;/i&gt;&lt;/div&gt;&lt;b style=&quot;font-size: 13px;&quot;&gt;&lt;div style=&quot;text-align: center; font-size: 13px;&quot;&gt;&lt;b style=&quot;background-color: initial; font-size: 13px;&quot;&gt;IDataConnection&lt;/b&gt;&lt;/div&gt;&lt;/b&gt;&lt;p style=&quot;font-size: 13px;&quot;&gt;&lt;/p&gt;&lt;hr style=&quot;border-style: solid; font-size: 13px;&quot;&gt;&lt;p style=&quot;margin: 0px 0px 0px 4px; font-size: 13px;&quot;&gt;CreateTodoModel(TodoModel todo): TodoModel&lt;br style=&quot;font-size: 13px;&quot;&gt;UpdateTodoDone(TodoModel todo): void&lt;/p&gt;&lt;p style=&quot;margin: 0px 0px 0px 4px; font-size: 13px;&quot;&gt;UpdateSettings(bool topmost, bool hideCompletet): void&lt;/p&gt;&lt;p style=&quot;margin: 0px 0px 0px 4px; font-size: 13px;&quot;&gt;LoadTodosFromFile(bool alwaysOnTopChecked, bool hideCompleted): (IEnumerable&amp;lt;TodoModel&amp;gt;, List&amp;lt;bool&amp;gt;)&lt;/p&gt;" style="verticalAlign=top;align=left;overflow=fill;html=1;whiteSpace=wrap;horizontal=1;fontSize=13;" vertex="1" parent="WIyWlLk6GJQsqaUBKTNV-1">
          <mxGeometry x="10" y="10" width="660" height="130" as="geometry" />
        </mxCell>
        <mxCell id="gE3AF1tb6HH0xJSkaLba-12" value="&lt;div style=&quot;font-size: 13px;&quot;&gt;&lt;span style=&quot;font-weight: normal; font-size: 13px;&quot;&gt;&amp;lt;&amp;lt;static&amp;gt;&amp;gt;&lt;/span&gt;&lt;/div&gt;TextConnectorHelper" style="swimlane;fontStyle=1;align=center;verticalAlign=top;childLayout=stackLayout;horizontal=1;startSize=40;horizontalStack=0;resizeParent=1;resizeParentMax=0;resizeLast=0;collapsible=1;marginBottom=0;whiteSpace=wrap;html=1;fontSize=13;" vertex="1" parent="WIyWlLk6GJQsqaUBKTNV-1">
          <mxGeometry x="-160" y="440" width="680" height="240" as="geometry" />
        </mxCell>
        <mxCell id="gE3AF1tb6HH0xJSkaLba-13" value="- Configuration: IConfiguration {readOnly}" style="text;strokeColor=none;fillColor=none;align=left;verticalAlign=top;spacingLeft=4;spacingRight=4;overflow=hidden;rotatable=0;points=[[0,0.5],[1,0.5]];portConstraint=eastwest;whiteSpace=wrap;html=1;fontSize=13;fontStyle=4" vertex="1" parent="gE3AF1tb6HH0xJSkaLba-12">
          <mxGeometry y="40" width="680" height="24" as="geometry" />
        </mxCell>
        <mxCell id="gE3AF1tb6HH0xJSkaLba-14" value="" style="line;strokeWidth=1;fillColor=none;align=left;verticalAlign=middle;spacingTop=-1;spacingLeft=3;spacingRight=3;rotatable=0;labelPosition=right;points=[];portConstraint=eastwest;strokeColor=inherit;fontSize=13;" vertex="1" parent="gE3AF1tb6HH0xJSkaLba-12">
          <mxGeometry y="64" width="680" height="8" as="geometry" />
        </mxCell>
        <mxCell id="gE3AF1tb6HH0xJSkaLba-15" value="+ FullFilePath(filename: this string): string" style="text;strokeColor=none;fillColor=none;align=left;verticalAlign=top;spacingLeft=4;spacingRight=4;overflow=hidden;rotatable=0;points=[[0,0.5],[1,0.5]];portConstraint=eastwest;whiteSpace=wrap;html=1;fontSize=13;fontStyle=4" vertex="1" parent="gE3AF1tb6HH0xJSkaLba-12">
          <mxGeometry y="72" width="680" height="28" as="geometry" />
        </mxCell>
        <mxCell id="gE3AF1tb6HH0xJSkaLba-17" value="+ LoadFile(file: this string): List&amp;lt;string&amp;gt;" style="text;strokeColor=none;fillColor=none;align=left;verticalAlign=top;spacingLeft=4;spacingRight=4;overflow=hidden;rotatable=0;points=[[0,0.5],[1,0.5]];portConstraint=eastwest;whiteSpace=wrap;html=1;fontSize=13;fontStyle=4" vertex="1" parent="gE3AF1tb6HH0xJSkaLba-12">
          <mxGeometry y="100" width="680" height="28" as="geometry" />
        </mxCell>
        <mxCell id="gE3AF1tb6HH0xJSkaLba-18" value="+ ConvertToTodoModels(lines: this List&amp;lt;string&amp;gt;): List&amp;lt;TodoModel&amp;gt;" style="text;strokeColor=none;fillColor=none;align=left;verticalAlign=top;spacingLeft=4;spacingRight=4;overflow=hidden;rotatable=0;points=[[0,0.5],[1,0.5]];portConstraint=eastwest;whiteSpace=wrap;html=1;fontSize=13;fontStyle=4" vertex="1" parent="gE3AF1tb6HH0xJSkaLba-12">
          <mxGeometry y="128" width="680" height="28" as="geometry" />
        </mxCell>
        <mxCell id="gE3AF1tb6HH0xJSkaLba-19" value="+ ConvertSettingsFromFileToBool(lines: this List&amp;lt;string&amp;gt;): List&amp;lt;bool&amp;gt;" style="text;strokeColor=none;fillColor=none;align=left;verticalAlign=top;spacingLeft=4;spacingRight=4;overflow=hidden;rotatable=0;points=[[0,0.5],[1,0.5]];portConstraint=eastwest;whiteSpace=wrap;html=1;fontSize=13;fontStyle=4" vertex="1" parent="gE3AF1tb6HH0xJSkaLba-12">
          <mxGeometry y="156" width="680" height="28" as="geometry" />
        </mxCell>
        <mxCell id="gE3AF1tb6HH0xJSkaLba-20" value="+ SaveToTodoFile(models: this List&amp;lt;TodoModel&amp;gt;, fileName: string): void" style="text;strokeColor=none;fillColor=none;align=left;verticalAlign=top;spacingLeft=4;spacingRight=4;overflow=hidden;rotatable=0;points=[[0,0.5],[1,0.5]];portConstraint=eastwest;whiteSpace=wrap;html=1;fontSize=13;fontStyle=4" vertex="1" parent="gE3AF1tb6HH0xJSkaLba-12">
          <mxGeometry y="184" width="680" height="28" as="geometry" />
        </mxCell>
        <mxCell id="gE3AF1tb6HH0xJSkaLba-21" value="+ SaveSettingsFile(settings: this List&amp;lt;string&amp;gt;, fileName: string): void" style="text;strokeColor=none;fillColor=none;align=left;verticalAlign=top;spacingLeft=4;spacingRight=4;overflow=hidden;rotatable=0;points=[[0,0.5],[1,0.5]];portConstraint=eastwest;whiteSpace=wrap;html=1;fontSize=13;fontStyle=4" vertex="1" parent="gE3AF1tb6HH0xJSkaLba-12">
          <mxGeometry y="212" width="680" height="28" as="geometry" />
        </mxCell>
        <mxCell id="gE3AF1tb6HH0xJSkaLba-22" value="&lt;b style=&quot;font-size: 13px;&quot;&gt;CategoryModel&lt;/b&gt;" style="swimlane;fontStyle=0;childLayout=stackLayout;horizontal=1;startSize=26;fillColor=none;horizontalStack=0;resizeParent=1;resizeParentMax=0;resizeLast=0;collapsible=1;marginBottom=0;whiteSpace=wrap;html=1;fontSize=13;" vertex="1" parent="WIyWlLk6GJQsqaUBKTNV-1">
          <mxGeometry x="530" y="160" width="440" height="130" as="geometry" />
        </mxCell>
        <mxCell id="gE3AF1tb6HH0xJSkaLba-23" value="+ Id: int" style="text;strokeColor=none;fillColor=none;align=left;verticalAlign=top;spacingLeft=4;spacingRight=4;overflow=hidden;rotatable=0;points=[[0,0.5],[1,0.5]];portConstraint=eastwest;whiteSpace=wrap;html=1;fontSize=13;" vertex="1" parent="gE3AF1tb6HH0xJSkaLba-22">
          <mxGeometry y="26" width="440" height="26" as="geometry" />
        </mxCell>
        <mxCell id="gE3AF1tb6HH0xJSkaLba-24" value="+ CategoryName: string" style="text;strokeColor=none;fillColor=none;align=left;verticalAlign=top;spacingLeft=4;spacingRight=4;overflow=hidden;rotatable=0;points=[[0,0.5],[1,0.5]];portConstraint=eastwest;whiteSpace=wrap;html=1;fontSize=13;" vertex="1" parent="gE3AF1tb6HH0xJSkaLba-22">
          <mxGeometry y="52" width="440" height="26" as="geometry" />
        </mxCell>
        <mxCell id="gE3AF1tb6HH0xJSkaLba-25" value="+ CategoryColor: string" style="text;strokeColor=none;fillColor=none;align=left;verticalAlign=top;spacingLeft=4;spacingRight=4;overflow=hidden;rotatable=0;points=[[0,0.5],[1,0.5]];portConstraint=eastwest;whiteSpace=wrap;html=1;fontSize=13;" vertex="1" parent="gE3AF1tb6HH0xJSkaLba-22">
          <mxGeometry y="78" width="440" height="26" as="geometry" />
        </mxCell>
        <mxCell id="gE3AF1tb6HH0xJSkaLba-26" value="+ TodoList: List&amp;lt;TodoModel&amp;gt;" style="text;strokeColor=none;fillColor=none;align=left;verticalAlign=top;spacingLeft=4;spacingRight=4;overflow=hidden;rotatable=0;points=[[0,0.5],[1,0.5]];portConstraint=eastwest;whiteSpace=wrap;html=1;fontSize=13;" vertex="1" parent="gE3AF1tb6HH0xJSkaLba-22">
          <mxGeometry y="104" width="440" height="26" as="geometry" />
        </mxCell>
        <mxCell id="gE3AF1tb6HH0xJSkaLba-27" value="&lt;div style=&quot;font-size: 13px;&quot;&gt;&lt;b style=&quot;background-color: initial; font-size: 13px;&quot;&gt;TodoModel&lt;/b&gt;&lt;br style=&quot;font-size: 13px;&quot;&gt;&lt;/div&gt;" style="swimlane;fontStyle=0;childLayout=stackLayout;horizontal=1;startSize=26;fillColor=none;horizontalStack=0;resizeParent=1;resizeParentMax=0;resizeLast=0;collapsible=1;marginBottom=0;whiteSpace=wrap;html=1;fontSize=13;" vertex="1" parent="WIyWlLk6GJQsqaUBKTNV-1">
          <mxGeometry x="530" y="300" width="440" height="104" as="geometry" />
        </mxCell>
        <mxCell id="gE3AF1tb6HH0xJSkaLba-28" value="+ Id: int" style="text;strokeColor=none;fillColor=none;align=left;verticalAlign=top;spacingLeft=4;spacingRight=4;overflow=hidden;rotatable=0;points=[[0,0.5],[1,0.5]];portConstraint=eastwest;whiteSpace=wrap;html=1;fontSize=13;" vertex="1" parent="gE3AF1tb6HH0xJSkaLba-27">
          <mxGeometry y="26" width="440" height="26" as="geometry" />
        </mxCell>
        <mxCell id="gE3AF1tb6HH0xJSkaLba-29" value="+ TodoContent: string" style="text;strokeColor=none;fillColor=none;align=left;verticalAlign=top;spacingLeft=4;spacingRight=4;overflow=hidden;rotatable=0;points=[[0,0.5],[1,0.5]];portConstraint=eastwest;whiteSpace=wrap;html=1;fontSize=13;" vertex="1" parent="gE3AF1tb6HH0xJSkaLba-27">
          <mxGeometry y="52" width="440" height="26" as="geometry" />
        </mxCell>
        <mxCell id="gE3AF1tb6HH0xJSkaLba-30" value="+ TodoDone: bool" style="text;strokeColor=none;fillColor=none;align=left;verticalAlign=top;spacingLeft=4;spacingRight=4;overflow=hidden;rotatable=0;points=[[0,0.5],[1,0.5]];portConstraint=eastwest;whiteSpace=wrap;html=1;fontSize=13;" vertex="1" parent="gE3AF1tb6HH0xJSkaLba-27">
          <mxGeometry y="78" width="440" height="26" as="geometry" />
        </mxCell>
        <mxCell id="gE3AF1tb6HH0xJSkaLba-32" value="&lt;div style=&quot;font-size: 13px;&quot;&gt;&lt;span style=&quot;font-weight: normal; font-size: 13px;&quot;&gt;&amp;lt;&amp;lt;static&amp;gt;&amp;gt;&lt;/span&gt;&lt;/div&gt;&lt;div style=&quot;font-size: 13px;&quot;&gt;&lt;span style=&quot;font-size: 13px;&quot;&gt;GlobalConfig&lt;/span&gt;&lt;/div&gt;" style="swimlane;fontStyle=1;align=center;verticalAlign=top;childLayout=stackLayout;horizontal=1;startSize=40;horizontalStack=0;resizeParent=1;resizeParentMax=0;resizeLast=0;collapsible=1;marginBottom=0;whiteSpace=wrap;html=1;fontSize=13;" vertex="1" parent="WIyWlLk6GJQsqaUBKTNV-1">
          <mxGeometry x="530" y="420" width="570" height="100" as="geometry" />
        </mxCell>
        <mxCell id="gE3AF1tb6HH0xJSkaLba-33" value="+ Connection: IDataConnection" style="text;strokeColor=none;fillColor=none;align=left;verticalAlign=top;spacingLeft=4;spacingRight=4;overflow=hidden;rotatable=0;points=[[0,0.5],[1,0.5]];portConstraint=eastwest;whiteSpace=wrap;html=1;fontSize=13;fontStyle=4" vertex="1" parent="gE3AF1tb6HH0xJSkaLba-32">
          <mxGeometry y="40" width="570" height="24" as="geometry" />
        </mxCell>
        <mxCell id="gE3AF1tb6HH0xJSkaLba-34" value="" style="line;strokeWidth=1;fillColor=none;align=left;verticalAlign=middle;spacingTop=-1;spacingLeft=3;spacingRight=3;rotatable=0;labelPosition=right;points=[];portConstraint=eastwest;strokeColor=inherit;fontSize=13;" vertex="1" parent="gE3AF1tb6HH0xJSkaLba-32">
          <mxGeometry y="64" width="570" height="8" as="geometry" />
        </mxCell>
        <mxCell id="gE3AF1tb6HH0xJSkaLba-35" value="+ InitializeConnections(): void" style="text;strokeColor=none;fillColor=none;align=left;verticalAlign=top;spacingLeft=4;spacingRight=4;overflow=hidden;rotatable=0;points=[[0,0.5],[1,0.5]];portConstraint=eastwest;whiteSpace=wrap;html=1;fontSize=13;fontStyle=4" vertex="1" parent="gE3AF1tb6HH0xJSkaLba-32">
          <mxGeometry y="72" width="570" height="28" as="geometry" />
        </mxCell>
        <mxCell id="gE3AF1tb6HH0xJSkaLba-41" value="&lt;div style=&quot;font-size: 13px;&quot;&gt;&lt;span style=&quot;background-color: initial; font-size: 13px;&quot;&gt;TodoViewerForm&lt;/span&gt;&lt;br style=&quot;font-size: 13px;&quot;&gt;&lt;/div&gt;" style="swimlane;fontStyle=1;align=center;verticalAlign=top;childLayout=stackLayout;horizontal=1;startSize=26;horizontalStack=0;resizeParent=1;resizeParentMax=0;resizeLast=0;collapsible=1;marginBottom=0;whiteSpace=wrap;html=1;fontSize=13;" vertex="1" parent="WIyWlLk6GJQsqaUBKTNV-1">
          <mxGeometry x="-160" y="700" width="680" height="288" as="geometry" />
        </mxCell>
        <mxCell id="gE3AF1tb6HH0xJSkaLba-42" value="- trayIcon: NotifyIcon" style="text;strokeColor=none;fillColor=none;align=left;verticalAlign=top;spacingLeft=4;spacingRight=4;overflow=hidden;rotatable=0;points=[[0,0.5],[1,0.5]];portConstraint=eastwest;whiteSpace=wrap;html=1;fontSize=13;" vertex="1" parent="gE3AF1tb6HH0xJSkaLba-41">
          <mxGeometry y="26" width="680" height="26" as="geometry" />
        </mxCell>
        <mxCell id="gE3AF1tb6HH0xJSkaLba-45" value="- trayMenu: ContextMenuStrip" style="text;strokeColor=none;align=left;fillColor=none;html=1;verticalAlign=middle;whiteSpace=wrap;rounded=0;fontSize=13;spacingLeft=4;spacingRight=4;" vertex="1" parent="gE3AF1tb6HH0xJSkaLba-41">
          <mxGeometry y="52" width="680" height="30" as="geometry" />
        </mxCell>
        <mxCell id="gE3AF1tb6HH0xJSkaLba-46" value="- settingsMenu: ContextMenuStrip" style="text;strokeColor=none;align=left;fillColor=none;html=1;verticalAlign=middle;whiteSpace=wrap;rounded=0;fontSize=13;spacingLeft=4;spacingRight=4;" vertex="1" parent="gE3AF1tb6HH0xJSkaLba-41">
          <mxGeometry y="82" width="680" height="30" as="geometry" />
        </mxCell>
        <mxCell id="gE3AF1tb6HH0xJSkaLba-47" value="- menuItemHideCompleted: ToolStripMenuItem" style="text;strokeColor=none;align=left;fillColor=none;html=1;verticalAlign=middle;whiteSpace=wrap;rounded=0;fontSize=13;spacingLeft=4;spacingRight=4;" vertex="1" parent="gE3AF1tb6HH0xJSkaLba-41">
          <mxGeometry y="112" width="680" height="30" as="geometry" />
        </mxCell>
        <mxCell id="gE3AF1tb6HH0xJSkaLba-48" value="- menuItemAlwaysOnTop: ToolStripMenuItem" style="text;strokeColor=none;align=left;fillColor=none;html=1;verticalAlign=middle;whiteSpace=wrap;rounded=0;fontSize=13;spacingLeft=4;spacingRight=4;" vertex="1" parent="gE3AF1tb6HH0xJSkaLba-41">
          <mxGeometry y="142" width="680" height="30" as="geometry" />
        </mxCell>
        <mxCell id="gE3AF1tb6HH0xJSkaLba-43" value="" style="line;strokeWidth=1;fillColor=none;align=left;verticalAlign=middle;spacingTop=-1;spacingLeft=3;spacingRight=3;rotatable=0;labelPosition=right;points=[];portConstraint=eastwest;strokeColor=inherit;fontSize=13;" vertex="1" parent="gE3AF1tb6HH0xJSkaLba-41">
          <mxGeometry y="172" width="680" height="8" as="geometry" />
        </mxCell>
        <mxCell id="gE3AF1tb6HH0xJSkaLba-44" value="- InitializesettingsMenu(): void" style="text;strokeColor=none;fillColor=none;align=left;verticalAlign=top;spacingLeft=4;spacingRight=4;overflow=hidden;rotatable=0;points=[[0,0.5],[1,0.5]];portConstraint=eastwest;whiteSpace=wrap;html=1;fontSize=13;" vertex="1" parent="gE3AF1tb6HH0xJSkaLba-41">
          <mxGeometry y="180" width="680" height="26" as="geometry" />
        </mxCell>
        <mxCell id="gE3AF1tb6HH0xJSkaLba-57" value="- InitializeTrayMenu(): void" style="text;strokeColor=none;fillColor=none;align=left;verticalAlign=top;spacingLeft=4;spacingRight=4;overflow=hidden;rotatable=0;points=[[0,0.5],[1,0.5]];portConstraint=eastwest;whiteSpace=wrap;html=1;fontSize=13;" vertex="1" parent="gE3AF1tb6HH0xJSkaLba-41">
          <mxGeometry y="206" width="680" height="24" as="geometry" />
        </mxCell>
        <mxCell id="gE3AF1tb6HH0xJSkaLba-58" value="- OnOpen(sender: object, e: EventArgs): void" style="text;whiteSpace=wrap;html=1;spacingLeft=4;spacingRight=4;fontSize=13;" vertex="1" parent="gE3AF1tb6HH0xJSkaLba-41">
          <mxGeometry y="230" width="680" height="28" as="geometry" />
        </mxCell>
        <mxCell id="gE3AF1tb6HH0xJSkaLba-59" value="- OnResize(e: EventArgs): void" style="text;strokeColor=none;align=left;fillColor=none;html=1;verticalAlign=top;whiteSpace=wrap;rounded=0;spacingLeft=4;spacingRight=4;fontSize=13;" vertex="1" parent="gE3AF1tb6HH0xJSkaLba-41">
          <mxGeometry y="258" width="680" height="30" as="geometry" />
        </mxCell>
      </root>
    </mxGraphModel>
  </diagram>
</mxfile>
